<svg width="512" height="512" viewBox="0 0 512 512" fill="none" xmlns="http://www.w3.org/2000/svg">
<rect x="153.333" y="171.667" width="210" height="149.333" fill="white"/>
<path d="M410 125C360.291 125 311.851 107.397 264.4 71.8C261.977 69.9825 259.029 69 256 69C252.971 69 250.023 69.9825 247.6 71.8C200.149 107.397 151.709 125 102 125C98.287 125 94.726 126.475 92.1005 129.101C89.475 131.726 88 135.287 88 139V237C88 330.352 143.216 398.952 250.867 441.363C254.165 442.663 257.835 442.663 261.133 441.363C368.784 398.952 424 330.333 424 237V139C424 135.287 422.525 131.726 419.899 129.101C417.274 126.475 413.713 125 410 125ZM344.797 205.323L232.797 307.989C230.137 310.425 226.639 311.74 223.032 311.66C219.426 311.58 215.99 310.112 213.44 307.56L166.773 260.893C165.398 259.612 164.295 258.066 163.529 256.349C162.764 254.631 162.353 252.778 162.32 250.898C162.286 249.018 162.632 247.151 163.336 245.408C164.04 243.664 165.089 242.081 166.418 240.751C167.747 239.422 169.331 238.374 171.074 237.67C172.817 236.966 174.685 236.62 176.564 236.653C178.444 236.686 180.298 237.098 182.015 237.863C183.733 238.628 185.278 239.731 186.56 241.107L223.763 278.291L325.869 184.677C328.607 182.167 332.23 180.848 335.94 181.009C339.651 181.17 343.146 182.798 345.656 185.536C348.166 188.274 349.486 191.896 349.325 195.607C349.164 199.318 347.535 202.813 344.797 205.323V205.323Z" fill="url(#paint0_linear_272_2583)"/>
<defs>
<linearGradient id="paint0_linear_272_2583" x1="88" y1="69" x2="459.275" y2="403.143" gradientUnits="userSpaceOnUse">
<stop offset="0.0922816" stop-color="#4A9EFF"/>
<stop offset="0.532517" stop-color="#1A7EF2"/>
<stop offset="1" stop-color="#6000DB"/>
</linearGradient>
</defs>
</svg>
